<?xml version="1.0" standalone="no"?>
<svg xmlns:xlink="http://www.w3.org/1999/xlink" id="wave" style="transform:rotate(180deg); transition: 0.3s" viewBox="0 0 1440 100" version="1.1" xmlns="http://www.w3.org/2000/svg"><defs><linearGradient id="sw-gradient-0" x1="0" x2="0" y1="1" y2="0"><stop stop-color="rgba(255, 249, 234, 1)" offset="0%"/><stop stop-color="rgba(255, 249, 234, 1)" offset="100%"/></linearGradient></defs><path style="transform:translate(0, 0px); opacity:1" fill="url(#sw-gradient-0)" d="M0,90L60,75C120,60,240,30,360,18.3C480,7,600,13,720,26.7C840,40,960,60,1080,58.3C1200,57,1320,33,1440,30C1560,27,1680,43,1800,41.7C1920,40,2040,20,2160,18.3C2280,17,2400,33,2520,35C2640,37,2760,23,2880,23.3C3000,23,3120,37,3240,48.3C3360,60,3480,70,3600,70C3720,70,3840,60,3960,53.3C4080,47,4200,43,4320,38.3C4440,33,4560,27,4680,33.3C4800,40,4920,60,5040,65C5160,70,5280,60,5400,55C5520,50,5640,50,5760,56.7C5880,63,6000,77,6120,76.7C6240,77,6360,63,6480,58.3C6600,53,6720,57,6840,56.7C6960,57,7080,53,7200,45C7320,37,7440,23,7560,15C7680,7,7800,3,7920,13.3C8040,23,8160,47,8280,55C8400,63,8520,57,8580,53.3L8640,50L8640,100L8580,100C8520,100,8400,100,8280,100C8160,100,8040,100,7920,100C7800,100,7680,100,7560,100C7440,100,7320,100,7200,100C7080,100,6960,100,6840,100C6720,100,6600,100,6480,100C6360,100,6240,100,6120,100C6000,100,5880,100,5760,100C5640,100,5520,100,5400,100C5280,100,5160,100,5040,100C4920,100,4800,100,4680,100C4560,100,4440,100,4320,100C4200,100,4080,100,3960,100C3840,100,3720,100,3600,100C3480,100,3360,100,3240,100C3120,100,3000,100,2880,100C2760,100,2640,100,2520,100C2400,100,2280,100,2160,100C2040,100,1920,100,1800,100C1680,100,1560,100,1440,100C1320,100,1200,100,1080,100C960,100,840,100,720,100C600,100,480,100,360,100C240,100,120,100,60,100L0,100Z"/></svg>